<svg aria-hidden="true" style="position: absolute; width: 0; height: 0; overflow: hidden;" version="1.1" xmlns="http://www.w3.org/2000/svg" xmlns:xlink="http://www.w3.org/1999/xlink">
<defs>
<symbol id="icon-Logo" viewBox="0 0 109 32">
<path fill="#f5f8fc" style="fill: var(--color1, #f5f8fc)" d="M32.018 25.6v-18.618h7.345c1.412 0 2.615 0.27 3.609 0.809 0.994 0.533 1.752 1.276 2.273 2.227 0.527 0.945 0.791 2.036 0.791 3.273s-0.267 2.327-0.8 3.273c-0.533 0.945-1.306 1.682-2.318 2.209-1.006 0.527-2.224 0.791-3.655 0.791h-4.682v-3.155h4.045c0.758 0 1.382-0.13 1.873-0.391 0.497-0.267 0.867-0.633 1.109-1.1 0.248-0.473 0.373-1.015 0.373-1.627 0-0.618-0.124-1.158-0.373-1.618-0.242-0.467-0.612-0.827-1.109-1.082-0.497-0.261-1.127-0.391-1.891-0.391h-2.655v15.4h-3.936zM52.127 25.864c-0.891 0-1.685-0.155-2.382-0.464-0.697-0.315-1.248-0.779-1.655-1.391-0.4-0.618-0.6-1.388-0.6-2.309 0-0.776 0.142-1.427 0.427-1.955s0.673-0.951 1.164-1.273c0.491-0.321 1.048-0.564 1.673-0.727 0.63-0.164 1.291-0.279 1.982-0.346 0.812-0.085 1.467-0.164 1.964-0.236 0.497-0.079 0.858-0.194 1.082-0.345s0.336-0.376 0.336-0.673v-0.055c0-0.576-0.182-1.021-0.545-1.336-0.358-0.315-0.867-0.473-1.527-0.473-0.697 0-1.251 0.155-1.664 0.464-0.412 0.303-0.685 0.685-0.818 1.146l-3.582-0.291c0.182-0.848 0.539-1.582 1.073-2.2 0.533-0.624 1.221-1.103 2.064-1.436 0.848-0.339 1.83-0.509 2.945-0.509 0.776 0 1.518 0.091 2.227 0.273 0.715 0.182 1.348 0.464 1.9 0.845 0.558 0.382 0.997 0.873 1.318 1.473 0.321 0.594 0.482 1.306 0.482 2.136v9.418h-3.673v-1.936h-0.109c-0.224 0.436-0.524 0.821-0.9 1.155-0.376 0.327-0.827 0.585-1.355 0.773-0.527 0.182-1.136 0.273-1.827 0.273zM53.236 23.191c0.57 0 1.073-0.112 1.509-0.336 0.436-0.23 0.779-0.539 1.027-0.927s0.373-0.827 0.373-1.318v-1.482c-0.121 0.079-0.288 0.151-0.5 0.218-0.206 0.061-0.439 0.118-0.7 0.173-0.261 0.048-0.521 0.094-0.782 0.136-0.261 0.036-0.497 0.070-0.709 0.1-0.455 0.067-0.851 0.173-1.191 0.318s-0.603 0.343-0.791 0.591c-0.188 0.242-0.282 0.545-0.282 0.909 0 0.527 0.191 0.93 0.573 1.209 0.388 0.273 0.879 0.409 1.473 0.409zM69.286 31.127c-1.255 0-2.33-0.173-3.227-0.518-0.891-0.339-1.6-0.803-2.127-1.391s-0.87-1.248-1.027-1.982l3.582-0.482c0.109 0.279 0.282 0.539 0.518 0.782s0.548 0.436 0.936 0.582c0.394 0.151 0.873 0.227 1.436 0.227 0.842 0 1.536-0.206 2.082-0.618 0.552-0.406 0.827-1.088 0.827-2.045v-2.555h-0.164c-0.17 0.388-0.424 0.754-0.764 1.1s-0.776 0.627-1.309 0.845-1.17 0.327-1.909 0.327c-1.049 0-2.003-0.242-2.864-0.727-0.855-0.491-1.536-1.239-2.045-2.245-0.503-1.012-0.755-2.291-0.755-3.836 0-1.582 0.258-2.903 0.773-3.964s1.2-1.855 2.055-2.382c0.861-0.527 1.803-0.791 2.827-0.791 0.782 0 1.436 0.133 1.964 0.4 0.527 0.261 0.951 0.588 1.273 0.982 0.327 0.388 0.579 0.77 0.755 1.145h0.145v-2.345h3.846v14.1c0 1.188-0.291 2.182-0.873 2.982s-1.388 1.4-2.418 1.8c-1.024 0.406-2.203 0.609-3.536 0.609zM69.368 22.491c0.624 0 1.152-0.154 1.582-0.464 0.436-0.315 0.77-0.764 1-1.345 0.236-0.588 0.355-1.291 0.355-2.109s-0.115-1.527-0.345-2.127c-0.23-0.606-0.564-1.076-1-1.409s-0.967-0.5-1.591-0.5c-0.636 0-1.173 0.173-1.609 0.518-0.436 0.339-0.767 0.812-0.991 1.418s-0.336 1.306-0.336 2.1c0 0.806 0.112 1.503 0.336 2.091 0.23 0.582 0.561 1.033 0.991 1.355 0.436 0.315 0.973 0.473 1.609 0.473zM85.559 25.873c-1.436 0-2.673-0.291-3.709-0.873-1.030-0.588-1.824-1.418-2.382-2.491-0.558-1.079-0.836-2.355-0.836-3.827 0-1.436 0.279-2.697 0.836-3.782s1.342-1.93 2.355-2.536c1.018-0.606 2.212-0.909 3.582-0.909 0.921 0 1.779 0.148 2.573 0.445 0.8 0.291 1.497 0.73 2.091 1.318 0.6 0.588 1.067 1.327 1.4 2.218 0.334 0.885 0.5 1.921 0.5 3.109v1.064h-11.791v-2.4h8.145c0-0.558-0.121-1.052-0.364-1.482s-0.579-0.767-1.009-1.009c-0.424-0.248-0.918-0.373-1.482-0.373-0.588 0-1.109 0.136-1.564 0.409-0.448 0.267-0.8 0.627-1.055 1.082-0.255 0.449-0.385 0.948-0.391 1.5v2.282c0 0.691 0.127 1.288 0.382 1.791 0.261 0.503 0.627 0.891 1.1 1.164s1.033 0.409 1.682 0.409c0.43 0 0.824-0.061 1.182-0.182s0.664-0.303 0.918-0.545c0.255-0.242 0.449-0.539 0.582-0.891l3.582 0.236c-0.182 0.861-0.555 1.612-1.118 2.255-0.558 0.636-1.279 1.133-2.164 1.491-0.879 0.352-1.894 0.527-3.045 0.527zM106.114 15.618l-3.546 0.218c-0.060-0.303-0.191-0.576-0.391-0.818-0.199-0.248-0.464-0.445-0.791-0.591-0.321-0.152-0.706-0.227-1.154-0.227-0.601 0-1.106 0.127-1.519 0.382-0.412 0.248-0.618 0.582-0.618 1 0 0.333 0.133 0.615 0.4 0.845s0.725 0.415 1.373 0.555l2.527 0.509c1.358 0.279 2.37 0.727 3.036 1.345s1 1.43 1 2.436c0 0.915-0.27 1.718-0.809 2.409-0.533 0.691-1.267 1.23-2.2 1.618-0.928 0.382-1.998 0.573-3.209 0.573-1.849 0-3.322-0.385-4.419-1.155-1.091-0.776-1.73-1.83-1.918-3.164l3.809-0.2c0.115 0.564 0.394 0.994 0.837 1.291 0.442 0.291 1.009 0.436 1.701 0.436 0.678 0 1.224-0.13 1.636-0.391 0.419-0.267 0.631-0.609 0.636-1.027-0.005-0.352-0.154-0.639-0.445-0.864-0.291-0.23-0.74-0.406-1.345-0.527l-2.418-0.482c-1.364-0.273-2.379-0.745-3.046-1.418-0.661-0.673-0.991-1.53-0.991-2.573 0-0.897 0.242-1.67 0.727-2.318 0.491-0.648 1.179-1.148 2.064-1.5 0.891-0.352 1.934-0.527 3.128-0.527 1.764 0 3.152 0.373 4.164 1.118 1.019 0.745 1.612 1.761 1.782 3.046z"></path>
<path fill="#ffca42" style="fill: var(--color2, #ffca42)" d="M3.258 23.223h19.142v-20.48h-19.195c-1.768 0.006-3.199 1.451-3.205 3.236v18.858h0.001c0 0.008-0.001 0.016-0.001 0.024 0 1.888 1.468 3.483 3.205 3.483h19.195v-1.707h-19.195c-0.792 0-1.515-0.846-1.515-1.776 0-0.887 0.718-1.637 1.567-1.637zM5.072 4.467h5.072v9.217l-2.557-2.266-2.515 2.253v-9.204zM1.691 5.992c-0.003-0.848 0.675-1.538 1.515-1.542h0.176v11.52h1.672l2.54-2.275 2.566 2.275h1.675v-11.52h8.875v17.067h-17.451c-0.55 0-1.090 0.145-1.567 0.42v-15.945h-0.001z"></path>
</symbol>
<symbol id="icon-facebook" viewBox="0 0 20 32">
<path d="M17.438 18l0.875-5.75h-5.563v-3.75c0-1.625 0.75-3.125 3.25-3.125h2.563v-4.938c0 0-2.313-0.438-4.5-0.438-4.563 0-7.563 2.813-7.563 7.813v4.438h-5.125v5.75h5.125v14h6.25v-14h4.688z"></path>
</symbol>
<symbol id="icon-instagram" viewBox="0 0 30 32">
<path d="M15.111 8.191c-4.222 0-7.587 3.431-7.587 7.587 0 4.222 3.365 7.587 7.587 7.587 4.156 0 7.587-3.365 7.587-7.587 0-4.156-3.431-7.587-7.587-7.587zM15.111 20.726c-2.705 0-4.948-2.177-4.948-4.948 0-2.705 2.177-4.882 4.948-4.882 2.705 0 4.882 2.177 4.882 4.882 0 2.771-2.177 4.948-4.882 4.948zM24.743 7.927c0-0.99-0.792-1.781-1.781-1.781s-1.781 0.792-1.781 1.781 0.792 1.781 1.781 1.781c0.99 0 1.781-0.792 1.781-1.781zM29.757 9.708c-0.132-2.375-0.66-4.486-2.375-6.201s-3.826-2.243-6.201-2.375c-2.441-0.132-9.764-0.132-12.205 0-2.375 0.132-4.42 0.66-6.201 2.375-1.715 1.715-2.243 3.826-2.375 6.201-0.132 2.441-0.132 9.764 0 12.205 0.132 2.375 0.66 4.42 2.375 6.201 1.781 1.715 3.826 2.243 6.201 2.375 2.441 0.132 9.764 0.132 12.205 0 2.375-0.132 4.486-0.66 6.201-2.375 1.715-1.781 2.243-3.826 2.375-6.201 0.132-2.441 0.132-9.764 0-12.205zM26.59 24.486c-0.462 1.319-1.517 2.309-2.771 2.837-1.979 0.792-6.597 0.594-8.708 0.594-2.177 0-6.795 0.198-8.708-0.594-1.319-0.528-2.309-1.517-2.837-2.837-0.792-1.913-0.594-6.531-0.594-8.708 0-2.111-0.198-6.729 0.594-8.708 0.528-1.253 1.517-2.243 2.837-2.771 1.913-0.792 6.531-0.594 8.708-0.594 2.111 0 6.729-0.198 8.708 0.594 1.253 0.462 2.243 1.517 2.771 2.771 0.792 1.979 0.594 6.597 0.594 8.708 0 2.177 0.198 6.795-0.594 8.708z"></path>
</symbol>
<symbol id="icon-basket" viewBox="0 0 32 32">
<path d="M4.905 3.765h-4.905v-3.765h8.271l0.845 7.529h21.002v11.178l-23.022 4.576-2.19-19.519zM29.176 32c-1.559 0-2.824-1.264-2.824-2.824s1.264-2.824 2.824-2.824c1.559 0 2.824 1.264 2.824 2.824s-1.264 2.824-2.824 2.824zM10.353 32c-1.559 0-2.824-1.264-2.824-2.824s1.264-2.824 2.824-2.824c1.559 0 2.824 1.264 2.824 2.824s-1.264 2.824-2.824 2.824z"></path>
</symbol>
<symbol id="icon-linkedin" viewBox="0 0 32 32">
<path d="M7.143 32v-21.357h-6.643v21.357h6.643zM3.786 7.786c2.143 0 3.857-1.786 3.857-3.929 0-2.071-1.714-3.786-3.857-3.786-2.071 0-3.786 1.714-3.786 3.786 0 2.143 1.714 3.929 3.786 3.929zM31.929 32h0.071v-11.714c0-5.714-1.286-10.143-8-10.143-3.214 0-5.357 1.786-6.286 3.429h-0.071v-2.929h-6.357v21.357h6.643v-10.571c0-2.786 0.5-5.429 3.929-5.429s3.5 3.143 3.5 5.643v10.357h6.571z"></path>
</symbol>
<symbol id="icon-twitter" viewBox="0 0 37 32">
<path d="M32.786 8.571c1.429-1.071 2.714-2.357 3.714-3.857-1.286 0.571-2.786 1-4.286 1.143 1.571-0.929 2.714-2.357 3.285-4.143-1.429 0.857-3.071 1.5-4.714 1.857-1.429-1.5-3.357-2.357-5.5-2.357-4.143 0-7.5 3.357-7.5 7.5 0 0.571 0.071 1.143 0.214 1.714-6.214-0.357-11.786-3.357-15.5-7.857-0.643 1.071-1 2.357-1 3.786 0 2.571 1.286 4.857 3.357 6.214-1.214-0.071-2.429-0.357-3.429-0.929v0.071c0 3.643 2.571 6.643 6 7.357-0.571 0.143-1.286 0.286-1.929 0.286-0.5 0-0.929-0.071-1.429-0.143 0.929 3 3.714 5.143 7 5.214-2.571 2-5.786 3.214-9.286 3.214-0.643 0-1.214-0.072-1.786-0.143 3.286 2.143 7.214 3.357 11.5 3.357 13.786 0 21.286-11.357 21.286-21.286 0-0.357 0-0.643 0-1z"></path>
</symbol>
</defs>
</svg>
